# xmcd
#
# Track frame offsets:
#	150
#	11050
#	22590
#	34818
#	48344
#	62827
#	76304
#	91049
#	104032
#	119565
#	143333
#	156907
#	168776
#	183244
#	203651
#
# Disc length: 2955 seconds
#
# Revision: 1
# Processed by: cddbd v1.5.1PL0 Copyright (c) Steve Scherf et al.
# Submitted via: audiograbber 1.83.01
#
DISCID=b40b890f
DTITLE=Brenda Lee - CB90123
DYEAR=1900
DGENRE=Karaoke Country
TTITLE0=Fool Number One
TTITLE1=Sweet Nothings
TTITLE2=I'm Sorry
TTITLE3=Too Many Rivers
TTITLE4=Johnny One Time
TTITLE5=All Alone Am I
TTITLE6=Nobody Wins
TTITLE7=Break It To Me Gently
TTITLE8=Wrong Ideas
TTITLE9=Big Four Poster Bed
TTITLE10=Rock On Baby
TTITLE11=He's My Rock
TTITLE12=Tell Me What It's Like
TTITLE13=Cowgirl and The Daddy, The
TTITLE14=Broken Trust
EXTD=Chartbusters
EXTT0=
EXTT1=
EXTT2=
EXTT3=
EXTT4=
EXTT5=
EXTT6=
EXTT7=
EXTT8=
EXTT9=
EXTT10=
EXTT11=
EXTT12=
EXTT13=
EXTT14=
PLAYORDER=
